<svg width="101" height="100" viewBox="0 0 101 100" fill="none" xmlns="http://www.w3.org/2000/svg">
<path d="M100.124 49.742C100.124 22.3342 77.7898 0 50.382 0C22.9742 0 0.640015 22.3342 0.640015 49.742C0.640015 64.1672 6.85776 77.1498 16.7067 86.2526C16.7067 86.3023 16.7067 86.3023 16.6569 86.3521C17.1544 86.8495 17.7513 87.2474 18.2487 87.6951C18.5471 87.9438 18.7958 88.1925 19.0943 88.3915C19.9896 89.1376 20.9845 89.834 21.9296 90.5304C22.2778 90.7791 22.5762 90.9781 22.9244 91.2268C23.8695 91.8734 24.8644 92.4704 25.9089 93.0175C26.2571 93.2165 26.6551 93.4652 27.0033 93.6642C27.9981 94.2113 29.0427 94.7087 30.137 95.1564C30.5349 95.3554 30.9329 95.5544 31.3308 95.7036C32.4251 96.1513 33.5195 96.5492 34.6138 96.8974C35.0117 97.0466 35.4097 97.1958 35.8076 97.2953C37.0014 97.6435 38.1952 97.942 39.389 98.2404C39.7372 98.3399 40.0854 98.4394 40.4833 98.4891C41.8761 98.7876 43.2689 98.9865 44.7114 99.1358C44.9104 99.1358 45.1093 99.1855 45.3083 99.2353C46.9995 99.3845 48.6908 99.484 50.382 99.484C52.0732 99.484 53.7645 99.3845 55.4059 99.2353C55.6049 99.2353 55.8039 99.1855 56.0028 99.1358C57.4454 98.9865 58.8381 98.7876 60.2309 98.4891C60.5791 98.4394 60.9273 98.2902 61.3252 98.2404C62.519 97.942 63.7626 97.6933 64.9067 97.2953C65.3046 97.1461 65.7025 96.9969 66.1005 96.8974C67.1948 96.4994 68.3389 96.1513 69.3834 95.7036C69.7814 95.5544 70.1793 95.3554 70.5772 95.1564C71.6218 94.7087 72.6664 94.2113 73.711 93.6642C74.1089 93.4652 74.4571 93.2165 74.8053 93.0175C75.8001 92.4206 76.795 91.8734 77.7898 91.2268C78.138 91.0278 78.4365 90.7791 78.7847 90.5304C79.7795 89.834 80.7246 89.1376 81.62 88.3915C81.9184 88.1428 82.1671 87.8941 82.4656 87.6951C83.0127 87.2474 83.5599 86.7998 84.0573 86.3521C84.0573 86.3023 84.0573 86.3023 84.0076 86.2526C93.9062 77.1498 100.124 64.1672 100.124 49.742ZM74.9545 74.4637C61.4745 65.4107 39.389 65.4107 25.8095 74.4637C23.6208 75.9063 21.8301 77.5975 20.3378 79.4379C12.7771 71.7777 8.10131 61.2821 8.10131 49.742C8.10131 26.413 27.053 7.4613 50.382 7.4613C73.711 7.4613 92.6627 26.413 92.6627 49.742C92.6627 61.2821 87.9869 71.7777 80.4262 79.4379C78.9836 77.5975 77.1432 75.9063 74.9545 74.4637Z" fill="#5C5C5C"/>
<path d="M50.382 24.5212C40.0854 24.5212 31.7288 32.8779 31.7288 43.1745C31.7288 53.2722 39.6377 61.4796 50.1333 61.778H50.581H50.9292H51.0287C61.0765 61.4298 68.9855 53.2722 69.0352 43.1745C69.0352 32.8779 60.6786 24.5212 50.382 24.5212Z" fill="#5C5C5C"/>
</svg>
