<svg width="19" height="16" viewBox="0 0 19 16" fill="none" xmlns="http://www.w3.org/2000/svg">
<path d="M16.5625 0.666656H1.89583C0.8875 0.666656 0.0716667 1.49166 0.0716667 2.49999L0.0625 13.5C0.0625 14.5083 0.8875 15.3333 1.89583 15.3333H16.5625C17.5708 15.3333 18.3958 14.5083 18.3958 13.5V2.49999C18.3958 1.49166 17.5708 0.666656 16.5625 0.666656ZM16.1958 4.56249L9.715 8.61416C9.42167 8.79749 9.03667 8.79749 8.74333 8.61416L2.2625 4.56249C2.03333 4.41582 1.89583 4.16832 1.89583 3.90249C1.89583 3.28832 2.565 2.92166 3.0875 3.24249L9.22917 7.08332L15.3708 3.24249C15.8933 2.92166 16.5625 3.28832 16.5625 3.90249C16.5625 4.16832 16.425 4.41582 16.1958 4.56249Z" fill="black"/>
</svg>
