<svg width="16" height="16" viewBox="0 0 16 16" fill="none" xmlns="http://www.w3.org/2000/svg">
<path d="M11.575 15.4999C8.50632 15.4959 5.56449 14.2778 3.39462 12.1126C1.22476 9.94746 0.00397752 7.01202 0 3.95004C0 3.03505 0.364267 2.15754 1.01267 1.51055C1.66107 0.863562 2.54048 0.500086 3.45746 0.500086C3.65163 0.49861 3.84548 0.516194 4.03621 0.552585C4.22059 0.57981 4.40185 0.625026 4.57738 0.687583C4.70083 0.730804 4.81084 0.805431 4.89652 0.904084C4.98221 1.00274 5.0406 1.122 5.06593 1.25007L6.09565 5.75001C6.12341 5.87215 6.12006 5.99929 6.08593 6.11982C6.05179 6.24034 5.98795 6.35042 5.90023 6.44C5.80252 6.545 5.795 6.5525 4.87051 7.03249C5.61085 8.65311 6.90981 9.95457 8.53091 10.6999C9.01946 9.76995 9.02698 9.76245 9.1322 9.66495C9.22198 9.57742 9.33229 9.51372 9.45308 9.47966C9.57387 9.44559 9.70128 9.44226 9.82369 9.46995L14.3334 10.4974C14.4577 10.5262 14.5725 10.586 14.6672 10.6713C14.7619 10.7566 14.8333 10.8645 14.8746 10.9849C14.938 11.1629 14.9858 11.3461 15.0174 11.5324C15.0476 11.7209 15.0627 11.9115 15.0625 12.1024C15.0486 13.0135 14.6741 13.8821 14.0207 14.5186C13.3673 15.1551 12.4881 15.5079 11.575 15.4999Z" fill="black"/>
</svg>
